inDegrees=no
DataType=double
version=3
OpenSimVersion=4.4-2022-10-11-798caa840
endheader
time	elv_angle	shoulder_elv	shoulder_rot	elbow_flexion	pro_sup	deviation	flexion
2.4020851434	0.4810080477	0.7424204339	0.4275066566	1.3833486765	-0.0651748114	-0.0446135112	0.2011358152
2.4062554301	0.4810080477	0.7424204339	0.4275066566	1.3833486765	-0.0651748114	-0.0446135112	0.2011358152
2.4104257168	0.4810080477	0.7424204339	0.4275066566	1.3833486765	-0.0651748114	-0.0446135112	0.2011358152
2.4145960035	0.4810080477	0.7424204339	0.4275066566	1.3833486765	-0.0651748114	-0.0446135112	0.2011358152
2.4187662902	0.4810080477	0.7424204339	0.4275066566	1.3833486765	-0.0651748114	-0.0446135112	0.2011358152
2.4229365769	0.4810080477	0.7424204339	0.4275066566	1.3833486765	-0.0651748114	-0.0446135112	0.2011358152
2.4271068636	0.4810080477	0.7424204339	0.4275066566	1.3833486765	-0.0651748114	-0.0446135112	0.2011358152
2.4312771503	0.4810080477	0.7424204339	0.4275066566	1.3833486765	-0.0651748114	-0.0446135112	0.2011358152
2.4354474370	0.4810080477	0.7424204339	0.4275066566	1.3833486765	-0.0651748114	-0.0446135112	0.2011358152
2.4396177237	0.4810080477	0.7424204339	0.4275066566	1.3833486765	-0.0651748114	-0.0446135112	0.2011358152
2.4437880104	0.4810080477	0.7424204339	0.4275066566	1.3833486765	-0.0651748114	-0.0446135112	0.2011358152
2.4479582971	0.4810080477	0.7424204339	0.4275066566	1.3833486765	-0.0651748114	-0.0446135112	0.2011358152
2.4521285838	0.4810080477	0.7424204339	0.4275066566	1.3833486765	-0.0651748114	-0.0446135112	0.2011358152
2.4562988705	0.4828667660	0.7345394765	0.4245121251	1.3970201603	-0.0553346324	-0.0461550782	0.2017746234
2.4604691573	0.4830024700	0.7285433809	0.4235381370	1.4050191071	-0.0542104653	-0.0428692515	0.2029123650
2.4646394440	0.4828879685	0.7217925048	0.4238201152	1.4134320985	-0.0516514083	-0.0387842560	0.2028863944
2.4688097307	0.4836058199	0.7124283086	0.4241796706	1.4251980753	-0.0426518158	-0.0363566898	0.2014586488
2.4729800174	0.4850091656	0.7010999380	0.4225922924	1.4346044216	-0.0364344283	-0.0336132656	0.2021074982
2.4771503041	0.4858087721	0.6913178200	0.4213923894	1.4421069333	-0.0331916447	-0.0303158842	0.2030933175
2.4813205908	0.4855139844	0.6855863838	0.4234992373	1.4512228861	-0.0286880430	-0.0270472088	0.2010835731
2.4854908775	0.4863773643	0.6807194756	0.4262596172	1.4607626133	-0.0254386681	-0.0228321243	0.1977865446
2.4896611642	0.4877493967	0.6737679093	0.4251778653	1.4695937365	-0.0201293745	-0.0200340003	0.1936782253
2.4938314509	0.4886704751	0.6650014083	0.4198988945	1.4771119142	-0.0107718535	-0.0202050918	0.1901390967
2.4980017376	0.4901547995	0.6583371672	0.4170132657	1.4830801449	-0.0029930128	-0.0207048512	0.1900474590
2.5021720243	0.4914652167	0.6526444593	0.4179596520	1.4878317378	-0.0004039630	-0.0199311811	0.1865533578
2.5063423110	0.4921911439	0.6462325361	0.4197831400	1.4930438008	-0.0006734781	-0.0183763052	0.1795174447
2.5105125977	0.4931489665	0.6394644091	0.4184511947	1.5005707576	0.0026690097	-0.0179040946	0.1777380427
2.5146828844	0.4945321432	0.6332515975	0.4171982015	1.5067158983	0.0069991813	-0.0177851769	0.1709209015
2.5188531712	0.4961552202	0.6284162044	0.4178723603	1.5095801644	0.0103164116	-0.0168895020	0.1597228106
2.5230234579	0.4977056721	0.6252022871	0.4190246784	1.5105495283	0.0131231440	-0.0151177645	0.1556691220
2.5271937446	0.4990470585	0.6226621993	0.4196079672	1.5109552716	0.0137589416	-0.0143521331	0.1529334320
2.5313640313	0.5004018816	0.6204103166	0.4195581643	1.5122426626	0.0133507754	-0.0132597698	0.1460049209
2.5355343180	0.5020696628	0.6186648547	0.4194563926	1.5145578849	0.0140587883	-0.0101954598	0.1353286894
2.5397046047	0.5039376454	0.6175904866	0.4197283303	1.5150179120	0.0146804026	-0.0088628873	0.1276974674
2.5438748914	0.5057601155	0.6168597619	0.4194360038	1.5148967744	0.0148586243	-0.0079101542	0.1224373174
2.5480451781	0.5073007640	0.6158618797	0.4179633427	1.5160915430	0.0143835302	-0.0046712927	0.1151828393
2.5522154648	0.5084518051	0.6142121029	0.4166115194	1.5169395655	0.0123285221	-0.0004807755	0.1045569015
